# AST/ASF file generated using VICON BodyLanguage
# -----------------------------------------------
:version 1.10
:name VICON
:units
  mass 1.0
  length 0.45
  angle deg
:documentation
   .ast/.asf automatically generated from VICON data using
   VICON BodyBuilder and BodyLanguage model FoxedUp or BRILLIANT.MOD
:root
   order TX TY TZ RX RY RZ
   axis XYZ
   position 0 0 0  
   orientation 0 0 0 
:bonedata
  begin
     id 1 
     name lhipjoint
     direction 0.611804 -0.747784 0.257906 
     length 2.29243 
     axis 0 0 0  XYZ
  end
  begin
     id 2 
     name lfemur
     direction 0.34202 -0.939693 0  
     length 7.31159  
     axis 0 0 20  XYZ
    dof rx ry rz
    limits (-160.0 20.0)
           (-70.0 70.0)
           (-60.0 70.0)
  end
  begin
     id 3 
     name ltibia
     direction 0.34202 -0.939693 0   
     length 7.33391   
     axis 0 0 20   XYZ
    dof rx
    limits (-10.0 170.0)
  end
  begin
     id 4 
     name lfoot
     direction 0.122263 -0.335914 0.933924   
     length 1.76083   
     axis -90 7.62852e-016 20   XYZ
    dof rx rz
    limits (-45.0 90.0)
           (-70.0 20.0)
  end
  begin
     id 5 
     name ltoes
     direction 1.53533e-011 -4.2177e-011 1   
     length 0.879206   
     axis -90 7.62852e-016 20   XYZ
    dof rx
    limits (-90.0 20.0)
  end
  begin
     id 6 
     name rhipjoint
     direction -0.646469 -0.721248 0.248754   
     length 2.37677  
     axis 0 0 0  XYZ 
  end
  begin
     id 7 
     name rfemur
     direction -0.34202 -0.939693 0   
     length 7.18623   
     axis 0 0 -20   XYZ
    dof rx ry rz
    limits (-160.0 20.0)
           (-70.0 70.0)
           (-70.0 60.0)
  end
  begin
     id 8 
     name rtibia
     direction -0.34202 -0.939693 0   
     length 7.36567   
     axis 0 0 -20   XYZ
    dof rx
    limits (-10.0 170.0)
 end
 begin
     id 9 
     name rfoot
     direction -0.126681 -0.348054 0.928876   
     length 1.71902  
     axis -90 -7.62852e-016 -20   XYZ
    dof rx rz
    limits (-45.0 90.0)
           (-20.0 70.0)
  end
  begin
     id 10 
     name rtoes
     direction -1.53551e-011 -4.21898e-011 1   
     length 0.857792   
     axis -90 -7.62852e-016 -20   XYZ
    dof rx
    limits (-90.0 20.0)
  end
  begin
     id 11 
     name lowerback
     direction 0.0106509 0.999778 0.0181844   
     length 2.07668   
     axis 0 0 0   XYZ
    dof rx ry rz
    limits (-20.0 45.0)
           (-30.0 30.0)
           (-30.0 30.0)
  end
  begin
     id 12 
     name upperback
     direction -0.00456018 0.999989 -0.000590935   
     length 2.08011   
     axis 0 0 0   XYZ
    dof rx ry rz
    limits (-20.0 45.0)
           (-30.0 30.0)
           (-30.0 30.0)
  end
  begin
     id 13 
     name thorax
     direction -0.00910382 0.999916 -0.00923765   
     length 2.07397   
     axis 0 0 0   XYZ
    dof rx ry rz
    limits (-20.0 45.0)
           (-30.0 30.0)
           (-30.0 30.0)
  end
  begin
     id 14 
     name lowerneck
     direction 0.00171967 0.99778 0.0665733   
     length 1.67556   
     axis 0 0 0   XYZ
    dof rx ry rz
    limits (-20.0 45.0)
           (-30.0 30.0)
           (-30.0 30.0)
  end
  begin
     id 15 
     name upperneck
     direction -0.0143166 0.991302 -0.130828   
     length 1.68462   
     axis 0 0 0   XYZ
    dof rx ry rz
    limits (-20.0 45.0)
           (-30.0 30.0)
           (-30.0 30.0)
  end
  begin
     id 16
     name head
     direction -0.00606378 0.998665 -0.0512995  
     length 1.69269  
     axis 0 0 0   XYZ
    dof rx ry rz
    limits (-20.0 45.0)
           (-30.0 30.0)
           (-30.0 30.0)
  end
  begin
     id 17 
     name lclavicle
     direction 0.9638 0.179341 0.197297  
     length 4.12888  
     axis 0 0 0   XYZ
    dof ry rz
    limits (-20.0 10.0)
           (0.0 20.0)
  end
  begin
     id 18 
     name lhumerus
     direction 1 -4.48972e-011 -2.47351e-027   
     length 5.01834   
     axis -180 -30 -90   XYZ
    dof rx ry rz
    limits (-60.0 90.0)
           (-90.0 90.0)
           (-90.0 90.0)
  end
  begin
     id 19
     name lradius
     direction 1 -4.48965e-011 1.51591e-026   
     length 3.4869   
     axis -180 -30 -90   XYZ
    dof rx
    limits (-10.0 170.0)
  end
  begin
     id 20
     name lwrist
     direction 1 -4.48957e-011 2.70032e-026   
     length 1.74345   
     axis -1.81515e-014 90 90   XYZ
    dof ry
    limits (-180.0 0.0)
 end
  begin
     id 21 
     name lhand
     direction 1 -4.48951e-011 5.40064e-026   
     length 0.76799   
     axis -3.44607e-014 90 90   XYZ
    dof rx rz
    limits (-90.0 90.0)
           (-45.0 45.0)
  end
  begin
     id 22 
     name lfingers
     direction 1 -4.48971e-011 1.08013e-025   
     length 0.619174   
     axis -6.89214e-014 90 90   XYZ
    dof rx
    limits (0.0 90.0)
  end
  begin
     id 23
     name lthumb
     direction 0.707107 -6.34931e-011 0.707107   
     length 0.889013   
     axis -90 45 2.85299e-015   XYZ
    dof rx rz
    limits (-45.0 45.0)
           (-45.0 45.0)
  end
  begin
     id 24 
     name rclavicle
     direction -0.961409 0.252588 0.109054   
     length 4.04305  
     axis 0 0 0   XYZ 
    dof ry rz
    limits (-10.0 20.0)
           (-20.0 0.0)
  end
  begin
     id 25 
     name rhumerus
     direction -1 -4.4897e-011 1.33872e-017  
     length 4.70164   
     axis -180 30 90   XYZ
    dof rx ry rz
    limits (-90.0 60.0)
           (-90.0 90.0)
           (-90.0 90.0)
  end
  begin
     id 26 
     name rradius
     direction -1 -4.48954e-011 1.83844e-026   
     length 3.49911   
     axis -180 30 90   XYZ
    dof rx
    limits (-10.0 170.0)
  end
  begin
     id 27 
     name rwrist
     direction -1 -4.49008e-011 2.70032e-026   
     length 1.74955   
     axis -1.81515e-014 -90 -90   XYZ
    dof ry
    limits (-180.0 0.0)
  end
  begin
     id 28
     name rhand
     direction -1 -4.48916e-011 5.40064e-026   
     length 0.739335   
     axis -3.44607e-014 -90 -90   XYZ
    dof rx rz
    limits (-90.0 90.0)
           (-45.0 45.0)
  end
  begin
     id 29
     name rfingers
     direction -1 -4.48987e-011 1.08013e-025   
     length 0.596071   
     axis -6.89214e-014 -90 -90   XYZ
    dof rx
    limits (0.0 90.0)
  end
  begin
     id 30
     name rthumb
     direction -0.707107 -6.34935e-011 0.707107   
     length 0.855843   
     axis -90 -45 -2.85299e-015   XYZ
    dof rx rz
    limits (-45.0 45.0)
           (-45.0 45.0)
  end
:hierarchy
  begin
    root lhipjoint rhipjoint lowerback
    lhipjoint lfemur
    lfemur ltibia
    ltibia lfoot
    lfoot ltoes
    rhipjoint rfemur
    rfemur rtibia
    rtibia rfoot
    rfoot rtoes
    lowerback upperback
    upperback thorax
    thorax lowerneck lclavicle rclavicle
    lowerneck upperneck
    upperneck head
    lclavicle lhumerus
    lhumerus lradius
    lradius lwrist
    lwrist lhand lthumb
    lhand lfingers
    rclavicle rhumerus
    rhumerus rradius
    rradius rwrist
    rwrist rhand rthumb
    rhand rfingers
  end

#!OML:ASF I:\salsa\salsa 7_09\Patient 1\Session 1\dancermale.ASF
:FULLY-SPECIFIED
:DEGREES
1192
root 4.32809 17.1389 -3.66351 179.086 248.692 187.079
lowerback -5.16293 -7.02948 -1.47861
upperback -3.06535 -9.34885 -0.142363
thorax -0.0854103 -4.68322 0.188896
lowerneck -9.71564 1.80208 -0.435066
upperneck 22.8276 4.16373 -9.10049
head 8.93946 0.752729 -2.62351
rclavicle -2.66496e-014 -4.07509e-015
rhumerus -6.48591 27.9478 -40.2717
rradius 120.012
rwrist 36.0436
rhand -8.61236 11.576
rfingers 7.12502
rthumb 17.3195 -17.6722
lclavicle -2.66496e-014 -4.07509e-015
lhumerus -27.6211 -46.9738 121.389
lradius 65.6739
lwrist 33.3726
lhand -19.343 53.0475
lfingers 7.12502
lthumb 6.97406 1162.91
rfemur -27.8826 -5.35466 26.9533
rtibia 25.3025
rfoot -9.78973 -11.0014
rtoes 13.3029
lfemur -6.44506 12.4023 -27.794
ltibia 34.6479
lfoot 339.128 -2.57986
ltoes -18.3145
1193
root 4.15058 17.1139 -3.5698 179.179 249.236 186.713
lowerback -5.23521 -6.84086 -0.902213
upperback -3.08464 -9.12277 -0.274593
thorax -0.178372 -4.57847 -0.242139
lowerneck -9.56915 1.73325 -0.468125
upperneck 22.8712 4.05485 -9.05725
head 8.91946 0.70285 -2.61614
rclavicle 4.73232e-014 1.2921e-015
rhumerus -8.77041 29.0638 -45.7174
rradius 119.768
rwrist 37.3484
rhand -8.83351 11.1957
rfingers 7.12502
rthumb 17.1067 -18.0712
lclavicle 4.73232e-014 1.2921e-015
lhumerus -26.8862 -46.7842 121.406
lradius 65.2256
lwrist 33.5978
lhand -16.8549 51.9011
lfingers 7.12502
lthumb 9.37538 1161.67
rfemur -26.8643 -4.51785 27.0173
rtibia 25.464
rfoot -11.2941 -10.5247
rtoes 13.4485
lfemur -8.62603 14.0073 -26.8139
ltibia 40.2901
lfoot 341.381 -5.57555
ltoes -19.7469
1194
root 3.99057 17.0889 -3.4741 180.102 249.549 185.572
lowerback -5.20199 -6.62842 0.019984
upperback -3.21427 -8.88422 -0.33489
thorax -0.478612 -4.47364 -0.762806
lowerneck -9.31274 1.59393 -0.479727
upperneck 22.9771 3.8555 -9.09149
head 8.8977 0.602621 -2.65036
rclavicle 3.58123e-014 8.69683e-015
rhumerus -11.5057 29.9457 -51.3998
rradius 119.393
rwrist 39.0433
rhand -8.6264 10.5214
rfingers 7.12502
rthumb 17.306 -18.7281
lclavicle 3.58123e-014 8.69683e-015
lhumerus -26.4095 -46.8004 121.805
lradius 64.6933
lwrist 34.8879
lhand -18.1275 51.1002
lfingers 7.12502
lthumb 8.14731 1160.92
rfemur -26.3829 -4.6383 27.6302
rtibia 26.0075
rfoot -12.2189 -10.549
rtoes 13.454
lfemur -11.2678 15.6798 -25.5128
ltibia 46.1928
lfoot 345.897 -9.27339
ltoes -19.9772
1195
root 3.822 17.0648 -3.4049 181.294 250.258 184.045
lowerback -5.19148 -6.28823 0.661222
upperback -3.22002 -8.45801 -0.266406
thorax -0.565912 -4.26909 -1.01454
lowerneck -9.13112 1.4275 -0.624247
upperneck 23.0336 3.6312 -9.06428
head 8.8691 0.487223 -2.64142
rclavicle -4.94663e-014 -5.66536e-015
rhumerus -14.0447 30.1948 -56.9855
rradius 118.77
rwrist 40.5947
rhand -7.92367 10.9469
rfingers 7.12502
rthumb 17.9823 -18.2418
lclavicle -4.94663e-014 -5.66536e-015
lhumerus -25.7831 -46.7463 122.043
lradius 64.2168
lwrist 36.2429
lhand -22.1615 51.4882
lfingers 7.12502
lthumb 4.25278 1161.43
rfemur -25.8647 -4.22097 28.5077
rtibia 26.5858
rfoot -12.9097 -10.9133
rtoes 16.5122
lfemur -13.9911 17.8568 -23.8229
ltibia 52.2325
lfoot 352.071 -12.9176
ltoes -12.2056
